<svg xmlns="http://www.w3.org/2000/svg" viewBox="0 0 380.9 85.1" focusable="false" style="pointer-events: none; display: block; width: 100%; height: 100%;">
  <path fill="#ff0000" d="M 60.699219 0.30078125 C 60.699219 0.30078125 22.699219 0.30078125 13.199219 2.8007812 C 7.9992187 4.2007813 3.9 8.3 2.5 13.5 C 0 23 0 42.699219 0 42.699219 C 0 42.699219 0 62.500391 2.5 71.900391 C 3.9 77.100391 7.9992188 81.199609 13.199219 82.599609 C 22.699219 85.099609 60.699219 85.099609 60.699219 85.099609 C 60.699219 85.099609 98.699219 85.099609 108.19922 82.599609 C 113.39922 81.199609 117.50039 77.100391 118.90039 71.900391 C 121.40039 62.400391 121.40039 42.699219 121.40039 42.699219 C 121.40039 42.699219 121.40039 23 118.90039 13.5 C 117.50039 8.3 113.39922 4.2007812 108.19922 2.8007812 C 98.699219 0.30078125 60.699219 0.30078125 60.699219 0.30078125 z M 48.5 24.5 L 80.099609 42.800781 L 48.5 61 L 48.5 24.5 z "></path>
   <path fill="#ffffff" d="M 48.5,61 80.1,42.8 48.5,24.5 Z"></path>
<path fill="#ffffff" d="M147.1 55.5L133.5 6.2h11.9l4.8 22.3c1.2 5.5 2.1 10.2 2.7 14.1h.3c.4-2.8 1.3-7.4 2.7-14l5-22.4h11.9L159 55.5v23.7h-11.8l-.1-23.7zm29.2 22.1c-2.4-1.6-4.1-4.1-5.1-7.6-1-3.4-1.5-8-1.5-13.6v-7.7c0-5.7.6-10.3 1.7-13.8 1.2-3.5 3-6 5.4-7.6 2.5-1.6 5.7-2.4 9.7-2.4 3.9 0 7.1.8 9.5 2.4s4.1 4.2 5.2 7.6 1.7 8 1.7 13.8v7.7c0 5.7-.5 10.2-1.6 13.7-1.1 3.4-2.8 6-5.2 7.6-2.4 1.6-5.7 2.4-9.8 2.4-4.3-.1-7.6-.9-10-2.5zm13.5-8.3c.7-1.7 1-4.6 1-8.5V44.2c0-3.8-.3-6.6-1-8.4s-1.8-2.6-3.5-2.6c-1.6 0-2.8.9-3.4 2.6-.7 1.8-1 4.6-1 8.4v16.6c0 3.9.3 6.8 1 8.5.6 1.7 1.8 2.6 3.5 2.6 1.5 0 2.7-.9 3.4-2.6zm51.7-43.4v53.3h-9.4l-1-6.5h-.3c-2.5 4.9-6.4 7.4-11.5 7.4-3.5 0-6.1-1.2-7.8-3.5-1.7-2.3-2.5-5.9-2.5-10.9V25.9h12V65c0 2.4.3 4.1.8 5.1s1.4 1.5 2.6 1.5c1 0 2-.3 3-1 1-.6 1.7-1.4 2.1-2.4V25.9h12z"></path>
  <path fill="#ffffff" d="M274.1 15.9h-11.9v63.3h-11.7V16h-11.9V6.4h35.5v9.5z"></path>
<path fill="#ffffff" d="M303 25.9v53.3h-9.4l-1-6.5h-.3c-2.5 4.9-6.4 7.4-11.5 7.4-3.5 0-6.1-1.2-7.8-3.5-1.7-2.3-2.5-5.9-2.5-10.9V25.9h12V65c0 2.4.3 4.1.8 5.1s1.4 1.5 2.6 1.5c1 0 2-.3 3-1 1-.6 1.7-1.4 2.1-2.4V25.9h12zm39.7 8.5c-.7-3.4-1.9-5.8-3.5-7.3s-3.9-2.3-6.7-2.3c-2.2 0-4.3.6-6.2 1.9-1.9 1.2-3.4 2.9-4.4 4.9h-.1V3.5h-11.6v75.7h9.9l1.2-5h.3c.9 1.8 2.3 3.2 4.2 4.3 1.9 1 3.9 1.6 6.2 1.6 4.1 0 7-1.9 8.9-5.6 1.9-3.7 2.9-9.6 2.9-17.5v-8.4c0-6.2-.4-10.8-1.1-14.2zm-11 21.7c0 3.9-.2 6.9-.5 9.1-.3 2.2-.9 3.8-1.6 4.7-.8.9-1.8 1.4-3 1.4-1 0-1.9-.2-2.7-.7-.8-.5-1.5-1.2-2-2.1V38.3c.4-1.4 1.1-2.6 2.1-3.6 1-.9 2.1-1.4 3.2-1.
4 1.2 0 2.2.5 2.8 1.4.7 1 1.1 2.6 1.4 4.8.3 2.3.4 5.5.4 9.6l-.1 7zm29.1.4v2.7c0 3.4.1 6 .3 7.7.2 1.7.6 3 1.3 3.7.6.8 1.6 1.2 3 1.2 1.8 0 3-.7 3.7-2.1.7-1.4 1-3.7 1.1-7l10.3.6c.1.5.1 1.1.1 1.9 0 4.9-1.3 8.6-4 11s-6.5 3.6-11.4 3.6c-5.9 0-10-1.9-12.4-5.6-2.4-3.7-3.6-9.4-3.6-17.2v-9.3c0-8 1.2-13.8 3.7-17.5s6.7-5.5 12.6-5.5c4.1 0 7.3.8 9.5 2.3s3.7 3.9 4.6 7c.9 3.2 1.3 7.6 1.3 13.2v9.1h-20.1v.2zm1.5-22.4c-.6.8-1 2-1.2 3.7s-.3 4.3-.3 7.8v3.8h8.8v-3.8c0-3.4-.1-6-.3-7.8-.2-1.8-.7-3-1.3-3.7-.6-.7-1.6-1.1-2.8-1.1-1.3 0-2.3.4-2.9 1.1z"></path>
<path fill="#ffffff" d="M84.8657 13.8712C84.8657 14.6755 84.8892 15.2776 84.9363 15.6798C84.9833 16.0819 85.0821 16.3736 85.2326 16.5594C85.3831 16.7428 85.6136 16.8345 85.9264 16.8345C86.3474 16.8345 86.639 16.6699 86.7942 16.343C86.9518 16.0161 87.0365 15.4705 87.0506 14.7085L89.4824 14.8519C89.4965 14.9601 89.5035 15.1106 89.5035 15.3011C89.5035 16.4582 89.186 17.3237 88.5534 17.8952C87.9208 18.4667 87.0247 18.7536 85.8676 18.7536C84.4777 18.7536 83.504 18.3185 82.9466 17.446C82.3869 16.5735 82.1094 15.2259 82.1094 13.4008V11.2136C82.1094 9.33452 82.3987 7.96105 82.9772 7.09558C83.5558 6.2301 84.5459 5.79736 85.9499 5.79736C86.9165 5.79736 87.6597 5.97375 88.1771 6.32888C88.6945 6.684 89.059 7.23433 89.2707 7.98457C89.4824 8.7348 89.5882 9.76961 89.5882 11.0913V13.2362H84.8657V13.8712ZM85.2232 7.96811C85.0797 8.14449 84.9857 8.43377 84.9363 8.83593C84.8892 9.2381 84.8657 9.84722 84.8657 10.6657V11.5641H86.9283V10.6657C86.9283 9.86133 86.9001 9.25221 86.846 8.83593C86.7919 8.41966 86.6931 8.12803 86.5496 7.95635C86.4062 7.78702 86.1851 7.7 85.8864 7.7C85.5854 7.70235 85.3643 7.79172 85.2232 7.96811Z"></path>
</svg>